<?xml version="1.0" encoding="UTF-8" standalone="no"?>
<!-- Created with Inkscape (http://www.inkscape.org/) -->

<svg
   width="33.158943mm"
   height="44.123516mm"
   viewBox="0 0 33.158944 44.123516"
   version="1.1"
   id="svg1"
   inkscape:version="1.4.2 (f4327f4, 2025-05-13)"
   sodipodi:docname="ohs_emblem_white_background.svg"
   xmlns:inkscape="http://www.inkscape.org/namespaces/inkscape"
   xmlns:sodipodi="http://sodipodi.sourceforge.net/DTD/sodipodi-0.dtd"
   xmlns="http://www.w3.org/2000/svg"
   xmlns:svg="http://www.w3.org/2000/svg"
   xmlns:rdf="http://www.w3.org/1999/02/22-rdf-syntax-ns#"
   xmlns:cc="http://creativecommons.org/ns#"
   xmlns:dc="http://purl.org/dc/elements/1.1/">
  <title
     id="title1">OHS Emblem</title>
  <sodipodi:namedview
     id="namedview1"
     pagecolor="#ffffff"
     bordercolor="#000000"
     borderopacity="0.25"
     inkscape:showpageshadow="2"
     inkscape:pageopacity="0.0"
     inkscape:pagecheckerboard="true"
     inkscape:deskcolor="#d1d1d1"
     inkscape:document-units="mm"
     showborder="true"
     inkscape:zoom="2.736408"
     inkscape:cx="108.35372"
     inkscape:cy="184.36578"
     inkscape:window-width="1366"
     inkscape:window-height="745"
     inkscape:window-x="-8"
     inkscape:window-y="-8"
     inkscape:window-maximized="1"
     inkscape:current-layer="g106" />
  <defs
     id="defs1"><clipPath
   id="clipPath54"
   clipPathUnits="userSpaceOnUse">
  <path
     id="path52"
     d="M 0,841.89 H 595.276 V 0 H 0 Z" />
</clipPath>
<clipPath
   id="clipPath70"
   clipPathUnits="userSpaceOnUse">
  <path
     id="path68"
     d="m 48.814,676.063 h 93.993 V 795.118 H 48.814 Z" />
</clipPath>




<clipPath
   clipPathUnits="userSpaceOnUse"
   id="clipPath174">
  <path
     id="path175"
     d="M -1691.9631,-2447.8036 H 1691.9654 V 2447.8025 H -1691.9631 Z"
     style="stroke-width:5.74944" />
</clipPath>
<clipPath
   clipPathUnits="userSpaceOnUse"
   id="clipPath175">
  <path
     id="path176"
     d="M -1691.9631,-2447.8036 H 1691.9654 V 2447.8025 H -1691.9631 Z"
     style="stroke-width:5.74944" />
</clipPath>
<clipPath
   clipPathUnits="userSpaceOnUse"
   id="clipPath176">
  <path
     id="path177"
     d="M -1691.9631,-2447.8036 H 1691.9654 V 2447.8025 H -1691.9631 Z"
     style="stroke-width:5.74944" />
</clipPath>
<clipPath
   clipPathUnits="userSpaceOnUse"
   id="clipPath177">
  <path
     id="path179"
     d="M -1691.9631,-2447.8036 H 1691.9654 V 2447.8025 H -1691.9631 Z"
     style="stroke-width:5.74944" />
</clipPath>
<clipPath
   clipPathUnits="userSpaceOnUse"
   id="clipPath179">
  <path
     id="path180"
     d="M -1691.9631,-2447.8036 H 1691.9654 V 2447.8025 H -1691.9631 Z"
     style="stroke-width:5.74944" />
</clipPath>
<clipPath
   clipPathUnits="userSpaceOnUse"
   id="clipPath180">
  <path
     id="path181"
     d="M -1691.9631,-2447.8036 H 1691.9654 V 2447.8025 H -1691.9631 Z"
     style="stroke-width:5.74944" />
</clipPath>
<clipPath
   clipPathUnits="userSpaceOnUse"
   id="clipPath181">
  <path
     id="path182"
     d="M -1691.9631,-2447.8036 H 1691.9654 V 2447.8025 H -1691.9631 Z"
     style="stroke-width:5.74944" />
</clipPath>
<clipPath
   clipPathUnits="userSpaceOnUse"
   id="clipPath182">
  <path
     id="path183"
     d="M -1691.9631,-2447.8036 H 1691.9654 V 2447.8025 H -1691.9631 Z"
     style="stroke-width:5.74944" />
</clipPath>
<clipPath
   clipPathUnits="userSpaceOnUse"
   id="clipPath183">
  <path
     id="path185"
     d="M -1691.9631,-2447.8036 H 1691.9654 V 2447.8025 H -1691.9631 Z"
     style="stroke-width:5.74944" />
</clipPath>
<clipPath
   clipPathUnits="userSpaceOnUse"
   id="clipPath185">
  <path
     id="path186"
     d="M -1691.9631,-2447.8036 H 1691.9654 V 2447.8025 H -1691.9631 Z"
     style="stroke-width:5.74944" />
</clipPath>
<clipPath
   clipPathUnits="userSpaceOnUse"
   id="clipPath186">
  <path
     id="path187"
     d="M -1691.9631,-2447.8036 H 1691.9654 V 2447.8025 H -1691.9631 Z"
     style="stroke-width:5.74944" />
</clipPath>
<clipPath
   clipPathUnits="userSpaceOnUse"
   id="clipPath187">
  <path
     id="path188"
     d="M -1691.9631,-2447.8036 H 1691.9654 V 2447.8025 H -1691.9631 Z"
     style="stroke-width:5.74944" />
</clipPath>
<clipPath
   clipPathUnits="userSpaceOnUse"
   id="clipPath188">
  <path
     id="path189"
     d="M -1691.9631,-2447.8036 H 1691.9654 V 2447.8025 H -1691.9631 Z"
     style="stroke-width:5.74944" />
</clipPath>
<clipPath
   clipPathUnits="userSpaceOnUse"
   id="clipPath189">
  <path
     id="path191"
     d="M -1691.9631,-2447.8036 H 1691.9654 V 2447.8025 H -1691.9631 Z"
     style="stroke-width:5.74944" />
</clipPath>
<clipPath
   clipPathUnits="userSpaceOnUse"
   id="clipPath191">
  <path
     id="path192"
     d="M -1691.9631,-2447.8036 H 1691.9654 V 2447.8025 H -1691.9631 Z"
     style="stroke-width:5.74944" />
</clipPath>
<clipPath
   clipPathUnits="userSpaceOnUse"
   id="clipPath192">
  <path
     id="path193"
     d="M -1691.9631,-2447.8036 H 1691.9654 V 2447.8025 H -1691.9631 Z"
     style="stroke-width:5.74944" />
</clipPath>
<clipPath
   clipPathUnits="userSpaceOnUse"
   id="clipPath193">
  <path
     id="path194"
     d="M -1691.9631,-2447.8036 H 1691.9654 V 2447.8025 H -1691.9631 Z"
     style="stroke-width:5.74944" />
</clipPath>
<clipPath
   clipPathUnits="userSpaceOnUse"
   id="clipPath194">
  <path
     id="path195"
     d="M -1691.9631,-2447.8036 H 1691.9654 V 2447.8025 H -1691.9631 Z"
     style="stroke-width:5.74944" />
</clipPath>
<clipPath
   clipPathUnits="userSpaceOnUse"
   id="clipPath195">
  <path
     id="path197"
     d="M -1691.9631,-2447.8036 H 1691.9654 V 2447.8025 H -1691.9631 Z"
     style="stroke-width:5.74944" />
</clipPath>
<clipPath
   clipPathUnits="userSpaceOnUse"
   id="clipPath197">
  <path
     id="path198"
     d="M -1691.9631,-2447.8036 H 1691.9654 V 2447.8025 H -1691.9631 Z"
     style="stroke-width:5.74944" />
</clipPath>
<clipPath
   clipPathUnits="userSpaceOnUse"
   id="clipPath198">
  <path
     id="path199"
     d="M -1691.9631,-2447.8036 H 1691.9654 V 2447.8025 H -1691.9631 Z"
     style="stroke-width:5.74944" />
</clipPath>
</defs>
  <g
     inkscape:label="Layer 1"
     inkscape:groupmode="layer"
     id="layer1"
     transform="translate(-60.484251,-54.049959)">
    <g
       transform="matrix(0.06205809,0,0,0.06066666,148.26374,195.0458)"
       id="g106"
       clip-path="url(#clipPath198)">
      <g
         transform="matrix(1,0,0,0.44435501,-1414.4729,-1881.0262)"
         id="g105">
        <path
           id="path105"
           style="fill:#ffffff;fill-opacity:1;fill-rule:nonzero;stroke:none"
           d="m 0,0 v 439.39 c 0,0.729 0.033,1.457 0.07,2.183 l 0.068,1.342 2.737,13.281 0.356,0.958 c 1.486,3.983 3.428,7.735 5.774,11.152 28.816,41.991 80.356,83.335 153.189,122.882 53.675,29.145 98.433,46.01 100.313,46.713 l 4.66,1.744 4.657,-1.748 c 1.894,-0.71 47,-17.738 100.604,-46.874 72.676,-39.5 124.114,-80.787 152.888,-122.715 2.347,-3.42 4.289,-7.173 5.772,-11.156 l 0.357,-0.957 2.736,-13.274 0.068,-1.318 c 0.04,-0.737 0.072,-1.473 0.072,-2.213 V 0 Z" />
      </g>
      <g
         clip-path="url(#clipPath54)"
         id="g50"
         transform="matrix(5.6846379,0,0,-5.8150188,-1691.9631,2299.5186)">

<g
   id="g64">
  <g
     clip-path="url(#clipPath70)"
     id="g66">
    <g
       transform="matrix(0.1759127,0,0,-0.1719685,297.63779,420.94489)"
       id="g72">
      <g
         transform="translate(-1414.4729,-2175.824)"
         id="g74">
        <path
           id="path76"
           style="fill:#ffffff;fill-opacity:1;fill-rule:nonzero;stroke:none"
           d="m 0,0 v 439.39 c 0,0.729 0.033,1.457 0.07,2.183 l 0.068,1.342 2.737,13.281 0.356,0.958 c 1.486,3.983 3.428,7.735 5.774,11.152 28.816,41.991 80.356,83.335 153.189,122.882 53.675,29.145 98.433,46.01 100.313,46.713 l 4.66,1.744 4.657,-1.748 c 1.894,-0.71 47,-17.738 100.604,-46.874 72.676,-39.5 124.114,-80.787 152.888,-122.715 2.347,-3.42 4.289,-7.173 5.772,-11.156 l 0.357,-0.957 2.736,-13.274 0.068,-1.318 c 0.04,-0.737 0.072,-1.473 0.072,-2.213 V 0 Z" />
      </g>
    </g>
    <g
       transform="matrix(0.1759127,0,0,-0.1719685,297.63779,420.94489)"
       id="g78">
      <g
         transform="translate(-994.4207,-1637.9657)"
         id="g80">
        <path
           id="path82"
           style="fill:#108549;fill-opacity:1;fill-rule:nonzero;stroke:none"
           d="m 0,0 c -22.397,-3.436 -30.6,-11.027 -30.6,-11.027 -39.147,30.522 -79.29,-1.327 -79.29,-1.327 -41.137,33.839 -80.616,0.332 -80.616,0.332 -42.134,28.863 -76.305,-3.318 -76.305,-3.318 -12.232,9.557 -27.249,13.131 -41.113,13.923 -19.399,-13.241 -38.077,-27.776 -54.338,-43.361 11.332,-2.763 20.805,-7.387 20.805,-7.387 23.887,16.256 46.446,0 46.446,0 24.219,17.252 41.802,0 41.802,0 26.541,20.9 47.773,0 47.773,0 25.214,18.578 52.544,2.654 52.544,2.654 29.653,15.924 51.296,0 51.296,0 25.877,14.266 46.115,0 46.115,0 25.877,19.906 44.456,0 44.456,0 24.549,20.901 44.455,0 44.455,0 3.481,2.761 11.049,5.651 19.286,8.264 C 36.755,-26.444 18.681,-12.625 0,0 m -152.894,79.549 c -9.867,-3.867 -46.054,-18.507 -88.608,-41.145 h 177.164 c -42.533,22.63 -78.697,37.278 -88.556,41.145 m -251.493,-164.89 c 1.084,2.907 2.506,5.694 4.281,8.28 66.595,97.041 247.214,164.676 247.214,164.676 0,0 180.62,-67.635 247.214,-164.676 1.775,-2.586 3.197,-5.373 4.281,-8.28 z" />
      </g>
    </g>
    <g
       transform="matrix(0.1759127,0,0,-0.1719685,297.63779,420.94489)"
       id="g84">
      <g
         transform="translate(-915.7371,-2036.0232)"
         id="g86">
        <path
           id="path88"
           style="fill:#ed1c24;fill-opacity:1;fill-rule:nonzero;stroke:none"
           d="M 0,0 -17.432,-12.002 -34.862,0 l 6.028,-20.286 -16.801,-12.869 21.156,-0.536 7.047,-19.955 7.048,19.955 21.155,0.536 -16.799,12.869 z m -33.427,219.824 h -93.439 v -19.241 h 93.439 z m -53.959,-122.368 7.047,-19.955 7.048,19.955 21.156,0.535 -16.801,12.869 6.029,20.287 -17.432,-12.002 -17.43,12.002 6.028,-20.287 -16.801,-12.869 z m 7.047,-168.458 -17.43,12.002 6.028,-20.287 -16.801,-12.868 21.156,-0.536 7.047,-19.955 7.048,19.955 21.156,0.536 -16.801,12.868 6.029,20.287 z M -131.122,0 -148.554,-12.002 -165.984,0 l 6.028,-20.286 -16.801,-12.869 21.156,-0.536 7.047,-19.955 7.048,19.955 21.155,0.536 -16.799,12.869 z M -329.57,219.824 h -86.92 v -19.241 h 86.92 z M -485.465,-126.53 v 426.119 c 0,0.619 0.04,1.232 0.07,1.848 h 144.248 c -43.989,-26.196 -61.683,-62.052 -65.895,-71.927 -0.529,-1.239 0.387,-2.608 1.735,-2.608 h 65.119 c 2.784,0 4.584,2.906 3.373,5.413 -4.827,9.994 -2.337,30.405 97.483,31.27 V 79.381 c -22.733,-7.918 -46.474,-10.766 -67.015,-1.88 -59.053,25.545 -40.888,86.077 -36.282,101.308 0.44,1.454 -0.953,2.79 -2.398,2.323 -122.168,-39.453 2.298,-154.47 14.13,-163.016 11.943,-8.626 11.279,-7.962 11.279,-7.962 l 80.286,3.114 v -31.645 h 13.27 v 32.16 l 145.916,5.66 -67.122,113.545 c -0.604,0.991 -1.945,1.21 -2.824,0.452 -7.413,-6.391 -39.16,-32.813 -75.97,-48.849 v 178.834 c 126.173,-3.94 110.293,-21.071 105.446,-31.11 -1.211,-2.507 0.589,-5.413 3.373,-5.413 l 69.1,2.654 c 1.347,0 2.604,1.578 1.735,2.608 -7.181,8.505 -31.795,43.003 -69.341,69.273 H 22.243 c 0.031,-0.616 0.071,-1.229 0.071,-1.848 V -126.53 Z" />
      </g>
    </g>
    <g
       transform="matrix(0.1759127,0,0,-0.1719685,297.63779,420.94489)"
       id="g90">
      <g
         transform="translate(-952.4109,-1576.0956)"
         id="g92">
        <path
           id="path94"
           style="fill:#ed1c24;fill-opacity:1;fill-rule:nonzero;stroke:none"
           d="m 0,0 c 1.815,0.242 0.726,3.01 0.822,4.245 0.506,6.443 1.033,12.887 1.373,19.339 0.239,4.542 0.298,9.1 0.237,13.646 -0.049,3.6 -0.398,7.197 -0.626,10.793 -0.103,1.615 -1.226,2.307 -2.543,2.935 -6.216,2.957 -12.336,6.124 -18.622,8.921 -6.478,2.881 -13.064,5.532 -19.683,8.073 -5.033,1.933 -10.187,3.554 -15.297,5.279 -13.034,4.4 -26.177,8.345 -39.771,10.731 -15.672,2.75 -31.443,4.733 -47.267,6.192 -16.145,1.49 -32.345,2.269 -48.578,2.161 -8.337,-0.054 -16.679,0.393 -25.011,0.227 -7.084,-0.142 -14.18,-0.617 -21.229,-1.339 -8.945,-0.916 -17.851,-2.209 -26.769,-3.376 -14.171,-1.854 -28.21,-4.454 -42.054,-7.987 -9.732,-2.484 -19.415,-5.19 -29.025,-8.105 -5.237,-1.588 -10.341,-3.669 -15.396,-5.787 -11.317,-4.74 -22.568,-9.639 -33.843,-14.48 -2.034,-0.873 -4.099,-1.691 -6.057,-2.711 -0.639,-0.333 -1.236,-1.171 -1.411,-1.885 -0.477,-1.945 -0.824,-3.936 -1.034,-5.93 -1.245,-11.819 -2.158,-23.659 -2.12,-35.556 0.005,-1.694 -0.234,-3.386 -0.284,-5.08 -0.086,-2.855 0.904,-3.445 3.357,-2.142 5.992,3.184 11.956,6.436 18.495,8.418 0.585,0.177 1.203,0.239 2.154,0.423 0.187,-1.147 0.542,-2.159 0.477,-3.145 -0.175,-2.64 -0.441,-5.284 -0.836,-7.902 -0.489,-3.24 -2.662,-4.916 -6.293,-5.156 -4.743,-0.315 -9.502,-0.384 -14.255,-0.523 -3.168,-0.092 -5.75,1.38 -8.018,3.367 -0.64,0.56 -0.86,1.663 -1.143,2.557 -1.53,4.836 -1.528,9.846 -1.391,14.823 0.168,6.139 0.626,12.269 0.971,18.403 0.102,1.804 -0.286,2.346 -2.145,2.21 -6.686,-0.492 -12.562,-2.924 -17.277,-7.771 -1.656,-1.702 -1.955,-4.034 -1.598,-6.268 0.998,-6.246 0.531,-12.476 0.134,-18.719 -0.249,-3.909 -0.495,-7.819 -0.656,-11.732 -0.047,-1.151 0.113,-2.33 0.329,-3.467 0.46,-2.428 1.125,-2.848 3.511,-2.286 2.265,0.534 4.496,1.225 6.774,1.681 5.651,1.129 11.321,1.263 17.064,0.533 6.195,-0.786 12.424,-1.506 18.654,-1.689 2.356,-0.068 4.887,1.192 7.101,2.314 1.939,0.984 2.929,2.929 3.129,5.236 0.458,5.262 1.06,10.512 1.538,15.773 0.286,3.149 1.269,5.524 4.585,6.855 8.745,3.508 17.318,7.444 26.059,10.963 5.883,2.368 11.879,4.49 17.924,6.409 8.164,2.592 16.363,5.125 24.662,7.229 6.657,1.688 13.499,2.631 20.233,4.029 9.354,1.943 18.853,2.73 28.308,3.925 11.373,1.438 22.788,2.097 34.213,2.537 8.973,0.347 17.968,0.145 26.953,0.101 4.761,-0.023 9.541,0.01 14.277,-0.402 8.968,-0.783 17.921,-1.786 26.862,-2.854 5.89,-0.703 11.776,-1.528 17.616,-2.565 11.266,-2.001 22.458,-4.359 33.458,-7.557 7.421,-2.157 14.959,-3.972 22.256,-6.489 8.502,-2.936 16.853,-6.335 25.163,-9.791 6.052,-2.517 11.902,-5.514 17.903,-8.157 1.682,-0.741 2.109,-1.842 2.092,-3.473 -0.039,-3.924 -0.015,-7.848 0.005,-11.772 0.003,-0.739 0.016,-1.5 0.178,-2.215 1.042,-4.617 3.517,-6.792 8.29,-6.658 4.535,0.129 9.126,0.358 13.57,1.194 8.274,1.555 16.429,1.297 24.609,-0.38 0.618,-0.126 1.25,-0.215 1.879,-0.242 3.132,-0.135 3.771,0.459 3.686,3.631 -0.164,6.135 -0.492,12.268 -0.55,18.404 -0.042,4.45 0.079,8.917 0.433,13.351 0.289,3.631 -1.151,5.986 -4.427,7.181 -4.784,1.744 -9.582,3.314 -14.82,1.61 C 9.363,29.477 8.478,28.416 8.308,26.541 7.885,21.902 7.459,17.264 7.068,12.623 6.668,7.874 6.388,3.112 5.9,-1.627 5.582,-4.721 4.805,-5.396 1.703,-5.735 c -2.848,-0.313 -5.71,-0.483 -8.559,-0.78 -1.039,-0.107 -2.1,-0.28 -3.079,-0.626 -2.642,-0.934 -4.805,-0.249 -5.554,2.374 -0.72,2.516 -1.001,5.191 -1.183,7.815 -0.122,1.777 0.709,2.337 2.409,1.795 3.327,-1.061 6.602,-2.286 9.904,-3.426 C -3.088,0.978 -1.801,0.583 0,0" />
      </g>
    </g>
    <g
       transform="matrix(0.1759127,0,0,-0.1719685,297.63779,420.94489)"
       id="g96">
      <g
         transform="translate(-1382.9709,-1563.5759)"
         id="g98">
        <path
           id="path100"
           style="fill:#ed1c24;fill-opacity:1;fill-rule:nonzero;stroke:none"
           d="m 0,0 c -1.898,-0.257 -3.261,-0.266 -4.514,-0.639 -6.21,-1.851 -9.298,-4.543 -9.341,-11.697 -0.021,-3.491 0.368,-6.984 0.324,-10.474 -0.09,-7.09 -0.353,-14.178 -0.531,-21.267 -0.033,-1.271 -0.115,-2.555 0.027,-3.811 0.216,-1.901 1.373,-2.681 3.302,-2.393 8.92,1.329 17.86,1.546 26.86,0.906 2.974,-0.213 6.148,-0.467 8.729,1.882 1.494,1.358 2.472,2.863 2.615,4.894 0.215,3.048 0.53,6.092 0.628,9.143 0.021,0.666 -0.698,1.354 -1.075,2.033 -0.687,-0.412 -1.502,-0.708 -2.019,-1.274 -0.379,-0.416 -0.385,-1.185 -0.525,-1.803 -1.251,-5.536 -3.375,-7.567 -9.041,-8.038 -3.25,-0.271 -6.562,-0.33 -9.804,-0.03 -3.297,0.303 -7.238,4.029 -7.027,9.258 0.133,3.278 0.509,6.545 0.659,9.823 0.288,6.342 0.501,12.689 0.727,19.036 C 0.038,-3.196 0,-1.937 0,0" />
      </g>
    </g>
    <g
       transform="matrix(0.1759127,0,0,-0.1719685,297.63779,420.94489)"
       id="g102">
      <g
         transform="translate(-942.7429,-1592.7634)"
         id="g104">
        <path
           id="path106"
           style="fill:#ed1c24;fill-opacity:1;fill-rule:nonzero;stroke:none"
           d="m 0,0 c -1.236,-1.187 -0.746,-2.451 -0.644,-3.657 0.178,-2.096 -0.019,-4.303 2.056,-5.739 2.378,-1.643 4.957,-2.364 7.824,-1.824 3.537,0.667 7.042,1.582 10.608,1.989 3.139,0.358 6.343,0.234 9.517,0.191 2.326,-0.032 4.645,-0.328 6.97,-0.416 2.661,-0.1 4.176,1.406 4.037,4.05 -0.071,1.372 -0.47,2.726 -0.559,4.099 -0.373,5.703 -0.717,11.407 -1.006,17.115 -0.149,2.949 -0.185,5.906 -0.222,8.86 -0.017,1.295 -0.563,2.196 -1.64,2.879 -3.232,2.051 -6.779,2.938 -10.567,2.756 -1.978,-0.096 -2.213,-1.804 -2.345,-3.255 -0.219,-2.424 -0.306,-4.869 -0.29,-7.304 0.029,-4.54 0.176,-9.08 0.265,-13.619 C 24.065,2.972 22.877,0.62 19.827,-0.669 15.269,-2.595 10.476,-3.326 5.589,-3.562 3.549,-3.659 1.849,-2.924 0.877,-0.947 0.713,-0.611 0.354,-0.372 0,0" />
      </g>
    </g>
    <g
       transform="matrix(0.1759127,0,0,-0.1719685,297.63779,420.94489)"
       id="g108">
      <g
         transform="translate(-1324.259,-1536.5886)"
         id="g110">
        <path
           id="path112"
           style="fill:#ffffff;fill-opacity:1;fill-rule:nonzero;stroke:none"
           d="M 0,0 9.45,4.312 7.982,7.528 -5.863,1.22 l 9.56,-20.972 4.396,2.003 z" />
      </g>
    </g>
    <g
       transform="matrix(0.1759127,0,0,-0.1719685,297.63779,420.94489)"
       id="g114">
      <g
         transform="translate(-1290.5686,-1531.1355)"
         id="g116">
        <path
           id="path118"
           style="fill:#ffffff;fill-opacity:1;fill-rule:nonzero;stroke:none"
           d="m 0,0 c 0.464,-1.173 0.703,-2.304 0.715,-3.377 0.014,-1.074 -0.183,-2.065 -0.583,-2.978 -0.399,-0.914 -1.004,-1.723 -1.808,-2.444 -0.807,-0.717 -1.798,-1.307 -2.978,-1.769 -1.183,-0.473 -2.312,-0.711 -3.391,-0.743 -1.076,-0.02 -2.078,0.162 -2.999,0.55 -0.918,0.395 -1.74,0.987 -2.464,1.781 -0.726,0.793 -1.321,1.779 -1.785,2.951 -0.462,1.178 -0.7,2.303 -0.713,3.378 -0.014,1.074 0.186,2.07 0.594,2.978 0.407,0.907 1.014,1.723 1.821,2.439 0.804,0.721 1.798,1.307 2.978,1.774 1.18,0.467 2.312,0.711 3.388,0.737 C -6.146,5.303 -5.15,5.116 -4.236,4.731 -3.323,4.343 -2.506,3.752 -1.78,2.958 -1.056,2.163 -0.462,1.178 0,0 M 4.597,1.816 C 3.977,3.388 3.11,4.727 1.997,5.832 0.884,6.942 -0.397,7.777 -1.855,8.333 -3.308,8.893 -4.896,9.147 -6.618,9.105 -8.338,9.06 -10.12,8.67 -11.954,7.948 c -1.829,-0.72 -3.388,-1.649 -4.677,-2.791 -1.287,-1.146 -2.275,-2.418 -2.966,-3.818 -0.69,-1.401 -1.066,-2.89 -1.128,-4.462 -0.062,-1.572 0.218,-3.145 0.835,-4.717 0.62,-1.571 1.489,-2.91 2.61,-4.02 1.118,-1.1 2.405,-1.93 3.867,-2.486 1.461,-0.554 3.052,-0.814 4.774,-0.767 1.72,0.047 3.494,0.425 5.323,1.146 1.225,0.483 2.327,1.064 3.311,1.743 0.978,0.675 1.828,1.427 2.552,2.237 0.719,0.819 1.31,1.696 1.769,2.635 0.46,0.94 0.781,1.915 0.963,2.921 0.181,1.012 0.218,2.044 0.103,3.098 -0.111,1.048 -0.373,2.101 -0.785,3.149" />
      </g>
    </g>
    <g
       transform="matrix(0.1759127,0,0,-0.1719685,297.63779,420.94489)"
       id="g120">
      <g
         transform="translate(-1273.5667,-1522.538)"
         id="g122">
        <path
           id="path124"
           style="fill:#ffffff;fill-opacity:1;fill-rule:nonzero;stroke:none"
           d="m 0,0 -2.802,8.473 -4.571,-1.511 2.799,-8.472 -4.56,-16.38 4.042,1.338 c 0.399,0.125 0.687,0.318 0.863,0.567 0.177,0.249 0.301,0.529 0.372,0.845 l 2.09,8.799 c 0.114,0.529 0.208,1.017 0.281,1.469 0.072,0.451 0.127,0.887 0.163,1.312 0.275,-0.332 0.571,-0.664 0.892,-0.98 0.32,-0.316 0.677,-0.659 1.069,-1.007 l 6.904,-5.826 c 0.196,-0.187 0.453,-0.327 0.767,-0.437 0.314,-0.114 0.664,-0.103 1.048,0.027 l 4.062,1.344 z" />
      </g>
    </g>
    <g
       transform="matrix(0.1759127,0,0,-0.1719685,297.63779,420.94489)"
       id="g126">
      <g
         transform="translate(-1259.0911,-1517.8798)"
         id="g128">
        <path
           id="path130"
           style="fill:#ffffff;fill-opacity:1;fill-rule:nonzero;stroke:none"
           d="M 0,0 7.985,2.206 6.971,-6.028 C 6.911,-6.396 6.862,-6.827 6.822,-7.32 6.784,-7.808 6.755,-8.337 6.737,-8.903 6.431,-8.425 6.138,-7.984 5.86,-7.574 5.58,-7.17 5.315,-6.812 5.074,-6.521 Z M 13.899,12.862 10.298,11.866 C 9.894,11.757 9.59,11.57 9.386,11.327 9.181,11.072 9.054,10.803 8.999,10.502 L 8.376,5.448 -2.003,2.595 -5.118,6.61 C -5.277,6.823 -5.515,6.989 -5.834,7.108 -6.153,7.229 -6.511,7.233 -6.901,7.129 L -10.54,6.128 5.435,-13.38 l 4.747,1.308 z" />
      </g>
    </g>
    <g
       transform="matrix(0.1759127,0,0,-0.1719685,297.63779,420.94489)"
       id="g132">
      <g
         transform="translate(-1236.3923,-1506.7714)"
         id="g134">
        <path
           id="path136"
           style="fill:#ffffff;fill-opacity:1;fill-rule:nonzero;stroke:none"
           d="M 0,0 10.141,2.231 9.378,5.687 -5.484,2.413 -0.519,-20.094 4.2,-19.057 Z" />
      </g>
    </g>
    <g
       transform="matrix(0.1759127,0,0,-0.1719685,297.63779,420.94489)"
       id="g138">
      <g
         transform="translate(-1204.3308,-1520.4579)"
         id="g140">
        <path
           id="path142"
           style="fill:#ffffff;fill-opacity:1;fill-rule:nonzero;stroke:none"
           d="m 0,0 -0.62,3.471 -7.71,-1.38 -3.429,19.228 -4.761,-0.851 3.43,-19.223 -7.71,-1.375 0.617,-3.466 z" />
      </g>
    </g>
    <g
       transform="matrix(0.1759127,0,0,-0.1719685,297.63779,420.94489)"
       id="g144">
      <g
         transform="translate(-1192.0447,-1504.6804)"
         id="g146">
        <path
           id="path148"
           style="fill:#ffffff;fill-opacity:1;fill-rule:nonzero;stroke:none"
           d="m 0,0 -1.09,8.862 -4.778,-0.587 1.087,-8.861 -7.674,-15.171 4.224,0.519 c 0.417,0.052 0.736,0.187 0.959,0.389 0.221,0.213 0.397,0.462 0.529,0.758 l 3.77,8.224 c 0.218,0.492 0.405,0.96 0.563,1.385 0.159,0.425 0.298,0.845 0.418,1.255 0.202,-0.383 0.43,-0.762 0.682,-1.141 0.249,-0.374 0.534,-0.768 0.851,-1.194 l 5.629,-7.066 c 0.161,-0.213 0.384,-0.404 0.669,-0.571 0.286,-0.171 0.631,-0.233 1.035,-0.182 l 4.245,0.52 z" />
      </g>
    </g>
    <g
       transform="matrix(0.1759127,0,0,-0.1719685,297.63779,420.94489)"
       id="g150">
      <g
         transform="translate(-1165.447,-1496.3788)"
         id="g152">
        <path
           id="path154"
           style="fill:#ffffff;fill-opacity:1;fill-rule:nonzero;stroke:none"
           d="m 0,0 c 1.054,0.047 2.024,-0.057 2.911,-0.312 0.884,-0.253 1.693,-0.622 2.421,-1.115 l -6.525,-6.527 c -0.983,0.514 -1.707,1.11 -2.174,1.785 -0.466,0.675 -0.718,1.406 -0.755,2.205 -0.026,0.587 0.065,1.115 0.269,1.593 0.208,0.477 0.499,0.888 0.873,1.225 0.376,0.341 0.819,0.612 1.333,0.809 C -1.136,-0.141 -0.583,-0.026 0,0 m 2.843,-20.312 c 1.053,0.046 1.99,0.233 2.807,0.555 0.82,0.321 1.516,0.736 2.086,1.24 0.571,0.503 1.012,1.069 1.326,1.702 0.313,0.632 0.487,1.276 0.516,1.94 l -2.841,0.399 c -0.529,0.074 -0.905,-0.145 -1.12,-0.653 -0.097,-0.286 -0.226,-0.555 -0.389,-0.809 -0.159,-0.26 -0.356,-0.483 -0.586,-0.68 -0.232,-0.197 -0.506,-0.359 -0.826,-0.483 -0.316,-0.129 -0.687,-0.202 -1.105,-0.217 -0.503,-0.027 -0.955,0.031 -1.354,0.171 -0.402,0.139 -0.744,0.327 -1.025,0.576 -0.28,0.249 -0.5,0.539 -0.662,0.882 -0.155,0.341 -0.246,0.695 -0.264,1.079 -0.012,0.316 0.011,0.628 0.068,0.928 0.059,0.301 0.166,0.608 0.321,0.909 0.154,0.305 0.358,0.622 0.613,0.949 0.256,0.322 0.575,0.675 0.951,1.053 l 6.61,6.657 c 0.423,-0.649 0.771,-1.339 1.046,-2.075 0.273,-0.732 0.459,-1.48 0.566,-2.242 0.046,-0.239 0.15,-0.43 0.313,-0.576 0.161,-0.145 0.382,-0.208 0.657,-0.197 l 2.762,0.124 c -0.075,1.401 -0.36,2.729 -0.858,3.985 -0.501,1.255 -1.186,2.397 -2.06,3.435 L 15.612,3.585 11.267,3.388 C 10.813,3.367 10.447,3.306 10.169,3.196 9.894,3.087 9.606,2.874 9.308,2.553 L 7.586,0.83 C 6.413,1.608 5.108,2.2 3.679,2.604 2.247,3.009 0.711,3.176 -0.929,3.103 -1.922,3.056 -2.892,2.864 -3.844,2.521 -4.794,2.174 -5.632,1.696 -6.36,1.09 -7.089,0.482 -7.666,-0.238 -8.088,-1.073 -8.517,-1.898 -8.706,-2.827 -8.659,-3.85 c 0.034,-0.72 0.195,-1.39 0.485,-2.028 0.293,-0.628 0.685,-1.204 1.175,-1.727 0.49,-0.53 1.069,-1.002 1.736,-1.422 0.666,-0.415 1.39,-0.768 2.168,-1.049 -0.612,-0.824 -1.043,-1.623 -1.297,-2.397 -0.254,-0.767 -0.363,-1.536 -0.329,-2.288 0.034,-0.799 0.233,-1.546 0.594,-2.247 0.361,-0.705 0.864,-1.307 1.513,-1.804 0.642,-0.509 1.426,-0.893 2.352,-1.168 0.921,-0.27 1.956,-0.384 3.105,-0.332" />
      </g>
    </g>
    <g
       transform="matrix(0.1759127,0,0,-0.1719685,297.63779,420.94489)"
       id="g156">
      <g
         transform="translate(-1119.3767,-1499.03)"
         id="g158">
        <path
           id="path160"
           style="fill:#ffffff;fill-opacity:1;fill-rule:nonzero;stroke:none"
           d="M 0,0 C 0.262,-0.011 0.501,0.067 0.711,0.244 L 2.683,2.003 C 1.673,3.201 0.412,4.136 -1.103,4.81 -2.617,5.489 -4.449,5.863 -6.604,5.946 -8.532,6.019 -10.276,5.79 -11.837,5.271 -13.396,4.747 -14.743,3.985 -15.871,2.983 -17,1.987 -17.882,0.773 -18.518,-0.653 c -0.635,-1.417 -0.985,-2.984 -1.05,-4.697 -0.065,-1.727 0.184,-3.325 0.753,-4.788 0.565,-1.458 1.395,-2.734 2.487,-3.819 1.09,-1.084 2.41,-1.945 3.956,-2.583 1.546,-0.639 3.268,-0.996 5.173,-1.069 1.891,-0.073 3.58,0.14 5.066,0.638 1.489,0.498 2.763,1.167 3.829,2.024 l -1.541,2.049 c -0.091,0.134 -0.21,0.249 -0.355,0.353 -0.145,0.099 -0.35,0.155 -0.614,0.166 -0.18,0.005 -0.367,-0.031 -0.561,-0.114 -0.197,-0.083 -0.41,-0.187 -0.644,-0.307 -0.23,-0.129 -0.501,-0.259 -0.803,-0.409 -0.307,-0.151 -0.659,-0.286 -1.059,-0.399 -0.402,-0.121 -0.861,-0.213 -1.386,-0.281 -0.526,-0.078 -1.128,-0.098 -1.81,-0.068 -1.16,0.042 -2.216,0.265 -3.165,0.67 -0.952,0.405 -1.759,0.965 -2.426,1.691 -0.669,0.716 -1.175,1.588 -1.52,2.605 -0.344,1.022 -0.493,2.169 -0.444,3.461 0.05,1.291 0.302,2.433 0.753,3.424 0.449,0.996 1.043,1.826 1.775,2.485 0.731,0.669 1.584,1.167 2.557,1.494 0.971,0.327 2.008,0.473 3.109,0.426 C -5.78,2.278 -5.186,2.221 -4.654,2.138 -4.127,2.055 -3.637,1.94 -3.196,1.779 -2.752,1.624 -2.332,1.433 -1.94,1.199 -1.549,0.965 -1.159,0.686 -0.776,0.354 -0.662,0.249 -0.539,0.166 -0.41,0.099 -0.28,0.042 -0.143,0.006 0,0" />
      </g>
    </g>
    <g
       transform="matrix(0.1759127,0,0,-0.1719685,297.63779,420.94489)"
       id="g162">
      <g
         transform="translate(-1094.3923,-1507.4198)"
         id="g164">
        <path
           id="path166"
           style="fill:#ffffff;fill-opacity:1;fill-rule:nonzero;stroke:none"
           d="m 0,0 c -0.127,-1.256 -0.434,-2.365 -0.916,-3.325 -0.484,-0.96 -1.113,-1.749 -1.889,-2.377 -0.772,-0.627 -1.68,-1.079 -2.726,-1.344 -1.045,-0.265 -2.199,-0.337 -3.463,-0.207 -1.261,0.13 -2.379,0.425 -3.349,0.903 -0.968,0.472 -1.769,1.089 -2.41,1.863 -0.636,0.773 -1.095,1.675 -1.378,2.713 -0.277,1.038 -0.352,2.184 -0.223,3.445 0.127,1.256 0.431,2.365 0.916,3.326 0.483,0.96 1.116,1.748 1.893,2.371 0.778,0.622 1.692,1.064 2.735,1.328 1.045,0.27 2.2,0.342 3.463,0.207 1.263,-0.124 2.379,-0.424 3.349,-0.897 0.971,-0.473 1.772,-1.095 2.402,-1.858 0.633,-0.762 1.088,-1.666 1.37,-2.703 C 0.052,2.407 0.127,1.256 0,0 M 4.916,-0.498 C 5.087,1.183 4.932,2.771 4.452,4.271 3.975,5.765 3.214,7.093 2.177,8.255 c -1.038,1.167 -2.33,2.122 -3.881,2.874 -1.547,0.747 -3.306,1.225 -5.272,1.422 -1.953,0.203 -3.766,0.089 -5.435,-0.332 -1.667,-0.426 -3.128,-1.1 -4.384,-2.029 -1.258,-0.933 -2.274,-2.081 -3.054,-3.45 -0.778,-1.365 -1.25,-2.889 -1.423,-4.571 -0.171,-1.681 -0.013,-3.269 0.474,-4.769 0.483,-1.493 1.248,-2.821 2.291,-3.989 1.043,-1.162 2.34,-2.122 3.892,-2.875 1.546,-0.746 3.297,-1.224 5.253,-1.416 1.309,-0.14 2.557,-0.13 3.741,0.026 1.184,0.146 2.282,0.426 3.3,0.815 1.013,0.393 1.94,0.903 2.78,1.525 0.841,0.628 1.575,1.344 2.197,2.159 0.625,0.809 1.129,1.707 1.513,2.698 0.381,0.985 0.633,2.033 0.747,3.159" />
      </g>
    </g>
    <g
       transform="matrix(0.1759127,0,0,-0.1719685,297.63779,420.94489)"
       id="g168">
      <g
         transform="translate(-1073.4216,-1502.4286)"
         id="g170">
        <path
           id="path172"
           style="fill:#ffffff;fill-opacity:1;fill-rule:nonzero;stroke:none"
           d="M 0,0 C 0.924,-0.155 1.723,-0.431 2.403,-0.824 3.08,-1.224 3.63,-1.712 4.04,-2.288 4.452,-2.863 4.728,-3.527 4.875,-4.275 5.021,-5.022 5.018,-5.831 4.87,-6.698 l -2.327,-13.609 4.766,-0.815 2.327,13.609 c 0.23,1.35 0.199,2.641 -0.097,3.871 -0.293,1.23 -0.824,2.34 -1.598,3.33 C 7.169,0.68 6.167,1.521 4.937,2.205 3.705,2.9 2.271,3.383 0.628,3.663 -1.021,3.943 -2.545,3.964 -3.935,3.726 -5.322,3.481 -6.547,3.02 -7.608,2.345 c -1.056,-0.674 -1.928,-1.54 -2.613,-2.61 -0.687,-1.058 -1.146,-2.266 -1.377,-3.621 l -2.325,-13.604 4.764,-0.815 2.324,13.594 c 0.148,0.866 0.415,1.635 0.802,2.283 0.384,0.658 0.871,1.194 1.458,1.609 0.588,0.41 1.265,0.684 2.039,0.835 C -1.764,0.166 -0.918,0.156 0,0" />
      </g>
    </g>
    <g
       transform="matrix(0.1759127,0,0,-0.1719685,297.63779,420.94489)"
       id="g174">
      <g
         transform="translate(-1054.1023,-1515.0048)"
         id="g176">
        <path
           id="path178"
           style="fill:#ffffff;fill-opacity:1;fill-rule:nonzero;stroke:none"
           d="M 0,0 2.939,-0.69 C 3.826,-0.893 4.579,-1.173 5.188,-1.521 5.803,-1.873 6.28,-2.272 6.625,-2.719 6.971,-3.16 7.193,-3.647 7.295,-4.177 7.391,-4.695 7.375,-5.246 7.243,-5.816 6.979,-6.953 6.351,-7.73 5.362,-8.146 4.371,-8.556 3.01,-8.561 1.271,-8.156 l -3.009,0.706 z m 0.698,2.993 2.047,8.775 -4.706,1.093 -5.237,-22.444 7.717,-1.8 c 1.714,-0.399 3.224,-0.582 4.53,-0.56 1.305,0.031 2.414,0.243 3.333,0.628 0.924,0.383 1.663,0.928 2.221,1.628 0.557,0.711 0.947,1.541 1.169,2.491 0.177,0.753 0.215,1.499 0.123,2.225 -0.094,0.732 -0.315,1.432 -0.66,2.086 -0.344,0.659 -0.811,1.277 -1.411,1.853 -0.596,0.575 -1.312,1.089 -2.14,1.546 0.667,0.161 1.279,0.471 1.839,0.928 l 8.268,6.813 -4.249,0.991 C 12.734,9.438 12.089,9.292 11.596,8.814 L 4.6,2.869 C 4.338,2.646 4.075,2.511 3.811,2.449 3.544,2.392 3.178,2.418 2.711,2.526 Z" />
      </g>
    </g>
    <g
       transform="matrix(0.1759127,0,0,-0.1719685,297.63779,420.94489)"
       id="g180">
      <g
         transform="translate(-1030.1267,-1517.5886)"
         id="g182">
        <path
           id="path184"
           style="fill:#ffffff;fill-opacity:1;fill-rule:nonzero;stroke:none"
           d="M 0,0 7.946,-2.334 2.752,-8.799 C 2.508,-9.08 2.238,-9.422 1.948,-9.821 c -0.291,-0.395 -0.592,-0.83 -0.906,-1.298 -0.01,0.56 -0.025,1.096 -0.049,1.589 -0.023,0.492 -0.059,0.927 -0.111,1.311 z M 18.587,3.611 14.999,4.664 C 14.6,4.784 14.244,4.789 13.938,4.686 13.632,4.581 13.378,4.42 13.176,4.187 L 9.987,0.224 -0.34,3.253 -0.872,8.312 c -0.025,0.264 -0.14,0.529 -0.348,0.799 -0.207,0.275 -0.506,0.466 -0.894,0.58 l -3.621,1.06 3.317,-24.992 4.719,-1.386 z" />
      </g>
    </g>
    <g
       transform="matrix(0.1759127,0,0,-0.1719685,297.63779,420.94489)"
       id="g186">
      <g
         transform="translate(-992.9597,-1520.9558)"
         id="g188">
        <path
           id="path190"
           style="fill:#ffffff;fill-opacity:1;fill-rule:nonzero;stroke:none"
           d="M 0,0 C -1.271,0.872 -2.709,1.598 -4.312,2.164 -6.31,2.88 -8.216,3.248 -10.029,3.273 -11.846,3.3 -13.501,3.03 -14.995,2.449 c -1.494,-0.571 -2.794,-1.427 -3.901,-2.568 -1.106,-1.142 -1.946,-2.512 -2.519,-4.13 -0.582,-1.629 -0.814,-3.232 -0.7,-4.805 0.111,-1.577 0.544,-3.05 1.294,-4.425 0.75,-1.37 1.813,-2.605 3.188,-3.705 1.377,-1.1 3.04,-1.997 4.994,-2.693 0.993,-0.352 1.946,-0.611 2.859,-0.783 0.913,-0.166 1.782,-0.254 2.609,-0.275 0.825,-0.021 1.606,0.037 2.34,0.176 0.734,0.13 1.43,0.318 2.088,0.556 l -0.651,2.298 c -0.101,0.363 -0.303,0.633 -0.607,0.814 -0.301,0.182 -0.685,0.235 -1.142,0.161 -0.44,-0.056 -0.881,-0.114 -1.322,-0.171 -0.439,-0.057 -0.911,-0.078 -1.417,-0.051 -0.511,0.02 -1.063,0.088 -1.665,0.202 -0.601,0.108 -1.276,0.301 -2.021,0.565 -1.206,0.436 -2.234,0.996 -3.082,1.712 -0.848,0.706 -1.496,1.516 -1.946,2.434 -0.448,0.919 -0.692,1.909 -0.728,2.983 -0.039,1.074 0.15,2.19 0.565,3.352 0.442,1.24 1.035,2.283 1.782,3.113 0.749,0.835 1.609,1.457 2.577,1.873 0.967,0.42 2.031,0.617 3.182,0.612 1.155,-0.015 2.364,-0.244 3.627,-0.69 0.9,-0.321 1.678,-0.695 2.332,-1.11 0.652,-0.421 1.267,-0.898 1.837,-1.427 l -1.406,-3.954 -3.079,1.105 C -6.2,-6.283 -6.455,-6.268 -6.67,-6.36 -6.888,-6.444 -7.031,-6.595 -7.105,-6.807 l -0.813,-2.283 8.125,-2.89 3.126,8.785 C 2.381,-1.94 1.271,-0.882 0,0" />
      </g>
    </g>
    <g
       transform="matrix(0.1759127,0,0,-0.1719685,297.63779,420.94489)"
       id="g192">
      <g
         transform="translate(-977.5613,-1551.6757)"
         id="g194">
        <path
           id="path196"
           style="fill:#ffffff;fill-opacity:1;fill-rule:nonzero;stroke:none"
           d="m 0,0 1.312,3.149 -10.651,4.425 2.457,5.905 8.392,-3.492 1.268,3.04 -8.391,3.497 2.505,6.019 10.646,-4.431 1.318,3.165 -15.127,6.293 -8.856,-21.272 z" />
      </g>
    </g>
  </g>
</g>


</g>
    </g>
  </g>
  <metadata
     id="metadata1">
    <rdf:RDF>
      <cc:Work
         rdf:about="">
        <dc:title>OHS Emblem</dc:title>
        <dc:date>2025</dc:date>
        <dc:publisher>
          <cc:Agent>
            <dc:title>ohs.school.nz</dc:title>
          </cc:Agent>
        </dc:publisher>
        <dc:creator>
          <cc:Agent>
            <dc:title>Nathan Marshall</dc:title>
          </cc:Agent>
        </dc:creator>
        <dc:description>Yo, why are you looking at this you hacker</dc:description>
      </cc:Work>
    </rdf:RDF>
  </metadata>
</svg>
